<?xml version="1.0" encoding="utf-8"?>
<!-- Generator: Adobe Illustrator 16.0.4, SVG Export Plug-In . SVG Version: 6.00 Build 0)  -->
<!DOCTYPE svg PUBLIC "-//W3C//DTD SVG 1.1//EN" "http://www.w3.org/Graphics/SVG/1.1/DTD/svg11.dtd">
<svg version="1.1" id="Layer_1" xmlns="http://www.w3.org/2000/svg" xmlns:xlink="http://www.w3.org/1999/xlink" x="0px" y="0px"
	 width="239.506px" height="105.493px" viewBox="0 0 239.506 105.493" enable-background="new 0 0 239.506 105.493"
	 xml:space="preserve">
<rect fill="#AD4F25" width="239.506" height="105.493"/>
<ellipse fill="#2D2E2D" stroke="#010101" stroke-width="1.8928" stroke-miterlimit="10" cx="119.883" cy="53.263" rx="109.933" ry="43.018"/>
<path fill="#737372" d="M83.438,81.203C65.854,67.12,62.036,42.675,74.908,26.601c3.258-4.066,7.276-7.201,11.741-9.397
	c-15.606-5.997-33.179-2.37-43.364,10.347c-12.872,16.072-9.053,40.517,8.531,54.602c13.134,10.518,30.228,12.27,43.404,5.789
	C91.101,86.36,87.11,84.146,83.438,81.203z"/>
<path fill="#737372" d="M97.699,24.294c9.104,2.41,18.86,14.658,23.806,31.112c3.979,13.224,3.843,25.87,0.391,33.989
	c5.613,2.092,10.741,2.092,14.433-0.551c8.909-6.38,6.108-25.548-6.256-42.812C120.145,32.168,107.079,23.771,97.699,24.294z"/>
<text transform="matrix(1 0 0 1 69.4683 66.9536)" fill="#C65F28" font-family="'Helvetica-Bold'" font-size="34.0698">WFSU</text>
</svg>
