<?xml version="1.0" encoding="utf-8"?>
<!-- Generator: Adobe Illustrator 16.0.4, SVG Export Plug-In . SVG Version: 6.00 Build 0)  -->
<!DOCTYPE svg PUBLIC "-//W3C//DTD SVG 1.1//EN" "http://www.w3.org/Graphics/SVG/1.1/DTD/svg11.dtd">
<svg version="1.1" id="Layer_1" xmlns="http://www.w3.org/2000/svg" xmlns:xlink="http://www.w3.org/1999/xlink" x="0px" y="0px"
	 width="505.5px" height="385px" viewBox="0 0 505.5 385" enable-background="new 0 0 505.5 385" xml:space="preserve">
<rect x="-0.5" fill="#2D2E2D" stroke="#010101" stroke-miterlimit="10" width="506" height="385"/>
<g>
	<path fill="none" stroke="#737372" stroke-width="10.6469" stroke-miterlimit="10" d="M155.464,179.894
		c0,0-31.268,102.91,103.034,131.638c0,0,134.078,17.408,39.62-82.506c0,0-119.829-54.995-169.542,14.004
		c0,0-26.557,61.988,88.728,33.013c0,0,289.967-49.55,124.716-144.393c0,0-195.402,117.817-4.339,192.735
		c0,0,150.102,31.481,54.132-62.75"/>
	<g>
		<path fill="#AC4F25" stroke="#702D14" stroke-width="1.183" stroke-miterlimit="10" d="M434.646,262.972
			c-2.17,7.534-10.035,11.882-17.569,9.712l-287.608-82.825c-7.533-2.17-11.882-10.035-9.712-17.57l40.267-139.825
			c2.169-7.534,10.036-11.883,17.57-9.712l287.607,82.825c7.533,2.169,11.884,10.036,9.713,17.57L434.646,262.972z"/>
		<path fill="#C65F28" stroke="#702D14" stroke-width="2.366" stroke-miterlimit="10" d="M166.82,200c0,0,40.09-22.625,53.54-17.509
			l130.912,37.667c0,0,26.711,23.828,30.111,42.248L166.82,200z"/>
		<path fill="#8E8C8B" stroke="#702D14" stroke-width="1.183" stroke-miterlimit="10" d="M423.817,215.081l19.729-68.505
			c-9.65-2.779-15.219-12.854-12.439-22.503l-229.93-66.215c-2.778,9.648-12.853,15.218-22.501,12.439l-19.729,68.505
			c9.648,2.779,15.219,12.854,12.44,22.503l229.928,66.215C404.094,217.872,414.169,212.302,423.817,215.081z"/>
		<path fill="#8E8C8B" stroke="#702D14" stroke-width="1.183" stroke-miterlimit="10" d="M384.6,184.543
			c-2.17,7.534-10.035,11.883-17.569,9.712l-148.919-42.885c-7.534-2.169-11.882-10.036-9.713-17.57l3.928-13.641
			c2.169-7.534,10.037-11.883,17.57-9.713l148.919,42.886c7.533,2.168,11.883,10.036,9.713,17.57L384.6,184.543z"/>
		<circle fill="#DDDCDB" stroke="#702D14" stroke-width="1.183" stroke-miterlimit="10" cx="254.874" cy="139.799" r="15.242"/>
		<circle fill="#DDDCDB" stroke="#702D14" stroke-width="1.183" stroke-miterlimit="10" cx="342.407" cy="165.007" r="15.242"/>
		
			<text transform="matrix(0.9609 0.2767 -0.2767 0.9609 259.6475 106.7188)" fill="#010101" font-family="'OCRAStd'" font-size="23.6598">Sounds</text>
	</g>
</g>
</svg>
