<?xml version="1.0" encoding="utf-8"?>
<!-- Generator: Adobe Illustrator 16.0.4, SVG Export Plug-In . SVG Version: 6.00 Build 0)  -->
<!DOCTYPE svg PUBLIC "-//W3C//DTD SVG 1.1//EN" "http://www.w3.org/Graphics/SVG/1.1/DTD/svg11.dtd">
<svg version="1.1" id="Layer_1" xmlns="http://www.w3.org/2000/svg" xmlns:xlink="http://www.w3.org/1999/xlink" x="0px" y="0px"
	 width="505.5px" height="385px" viewBox="0 0 505.5 385" enable-background="new 0 0 505.5 385" xml:space="preserve">
<g>
	<rect x="-1.5" fill="#2D2E2D" stroke="#010101" stroke-miterlimit="10" width="507" height="385"/>
	<rect y="198.5" fill="#C65F28" width="18" height="118"/>
	<rect x="22" y="220.5" fill="#C65F28" width="16" height="80"/>
	<path fill="#737372" d="M45,251.5h76.952c0,0,41.048,4.44,41.048-19.663V194.5h30v40.099c0,0,5.011,35-39.931,38.958L45,277.516
		V251.5z"/>
	<path fill="#737372" d="M68.423,122.5c0,0,46.844,16.333,39.448,58.525l204.633,13.124c0,0-29.586-40.649-9.861-71.649H68.423z"/>
	<path fill="#AC4F25" d="M75.541,118.5c0,0-17.154-2.547-9.12-9.183L75.662,93.5h245.354c0,0-14.678,25-30.745,25H75.541z"/>
	<path fill="#AC4F25" d="M315.852,119.45c0,0,19.627,8.439,19.627,22.748c0,0,16.839-33.841-4.967-47.929
		C330.512,94.27,321.303,96.567,315.852,119.45z"/>
	<path fill="#737372" d="M310.41,187.099c0,0,28.15-11.9,24.721-32.553l-6.918-10.379
		C328.213,144.167,331.76,160.229,310.41,187.099z"/>
	
		<ellipse fill="#C65F28" stroke="#702D14" stroke-width="2.1589" stroke-miterlimit="10" cx="313.006" cy="144.999" rx="10.358" ry="22.239"/>
	<text transform="matrix(1 0 0 1 113.1211 173.2603)" fill="#010101" font-family="'Oxygen-Regular'" font-size="24.8275">Video</text>
</g>
</svg>
